<?xml version="1.0" encoding="UTF-8"?><svg id="Layer_2" xmlns="http://www.w3.org/2000/svg" viewBox="0 0 90.78 18.54"><defs><style>.cls-1{fill:#9ea1a2;}</style></defs><g id="Layer_1-2"><path class="cls-1" d="M89.5,2.3c-1.15-1.46-2.87-2.3-4.73-2.3H6.01C4.15,0,2.43,.84,1.28,2.3,.13,3.76-.27,5.64,.18,7.44l.66,2.68c1.22,4.96,5.64,8.42,10.75,8.42H79.2c5.1,0,9.52-3.46,10.75-8.42l.66-2.68c.45-1.8,.04-3.68-1.1-5.14Zm-3.4,4.03l-.66,2.68c-.71,2.88-3.28,4.89-6.24,4.89H11.58c-2.96,0-5.53-2.01-6.24-4.89l-.66-2.69c-.1-.41,0-.84,.25-1.17s.65-.52,1.08-.52H84.77c.42,0,.81,.19,1.08,.52,.26,.33,.35,.76,.25,1.17Z"/></g></svg>