<svg xmlns="http://www.w3.org/2000/svg" width="149.396" height="22" viewBox="0 0 149.396 22">
  <g id="Group_113" data-name="Group 113" transform="translate(-102.587 -50)">
    <g id="Group_55" data-name="Group 55" transform="translate(240.27 67.879)">
      <path id="Path_55" data-name="Path 55" d="M845.6,1686.993h-11.26a.146.146,0,0,1,0-.292H845.6a.146.146,0,0,1,0,.292" transform="translate(-834.201 -1686.701)" fill="#e5cfa8"/>
    </g>
    <g id="Group_56" data-name="Group 56" transform="translate(240.097 67.706)">
      <path id="Path_56" data-name="Path 56" d="M844.918,1686.482h-11.26a.319.319,0,0,1,0-.637h11.26a.319.319,0,0,1,0,.637Zm0-.292h0Z" transform="translate(-833.345 -1685.845)" fill="#e5cfa8"/>
    </g>
    <g id="Group_57" data-name="Group 57" transform="translate(240.27 69.68)">
      <path id="Path_57" data-name="Path 57" d="M845.6,1695.923h-11.26a.146.146,0,0,1,0-.292H845.6a.146.146,0,0,1,0,.292" transform="translate(-834.201 -1695.63)" fill="#e5cfa8"/>
    </g>
    <g id="Group_58" data-name="Group 58" transform="translate(240.097 69.507)">
      <path id="Path_58" data-name="Path 58" d="M844.918,1695.412h-11.26a.319.319,0,0,1,0-.638h11.26a.319.319,0,0,1,0,.638Zm0-.292h0Z" transform="translate(-833.345 -1694.774)" fill="#e5cfa8"/>
    </g>
    <g id="Group_59" data-name="Group 59" transform="translate(240.27 71.388)">
      <path id="Path_59" data-name="Path 59" d="M845.6,1704.393h-11.26a.146.146,0,0,1,0-.293H845.6a.146.146,0,0,1,0,.293" transform="translate(-834.201 -1704.1)" fill="#e5cfa8"/>
    </g>
    <g id="Group_60" data-name="Group 60" transform="translate(240.097 71.216)">
      <path id="Path_60" data-name="Path 60" d="M844.918,1703.883h-11.26a.319.319,0,0,1,0-.638h11.26a.319.319,0,0,1,0,.638Zm0-.292h0Z" transform="translate(-833.345 -1703.245)" fill="#e5cfa8"/>
    </g>
    <g id="Group_61" data-name="Group 61" transform="translate(240.27 50.92)">
      <path id="Path_61" data-name="Path 61" d="M845.6,1602.88h-11.26a.146.146,0,0,1,0-.292H845.6a.146.146,0,0,1,0,.292" transform="translate(-834.201 -1602.588)" fill="#e5cfa8"/>
    </g>
    <g id="Group_62" data-name="Group 62" transform="translate(240.097 50.748)">
      <path id="Path_62" data-name="Path 62" d="M844.918,1602.37h-11.26a.319.319,0,0,1,0-.637h11.26a.319.319,0,0,1,0,.637Zm0-.292h0Z" transform="translate(-833.345 -1601.732)" fill="#e5cfa8"/>
    </g>
    <g id="Group_63" data-name="Group 63" transform="translate(240.27 52.67)">
      <path id="Path_63" data-name="Path 63" d="M845.6,1611.555h-11.26a.146.146,0,0,1,0-.292H845.6a.146.146,0,0,1,0,.292" transform="translate(-834.201 -1611.262)" fill="#e5cfa8"/>
    </g>
    <g id="Group_64" data-name="Group 64" transform="translate(240.097 52.497)">
      <path id="Path_64" data-name="Path 64" d="M844.918,1611.044h-11.26a.319.319,0,0,1,0-.638h11.26a.319.319,0,0,1,0,.638Zm0-.292h0Z" transform="translate(-833.345 -1610.406)" fill="#e5cfa8"/>
    </g>
    <g id="Group_65" data-name="Group 65" transform="translate(240.27 54.428)">
      <path id="Path_65" data-name="Path 65" d="M845.6,1620.28h-11.26a.147.147,0,0,1,0-.293H845.6a.147.147,0,0,1,0,.293" transform="translate(-834.201 -1619.987)" fill="#e5cfa8"/>
    </g>
    <g id="Group_66" data-name="Group 66" transform="translate(240.097 54.256)">
      <path id="Path_66" data-name="Path 66" d="M844.918,1619.77h-11.26a.319.319,0,0,1,0-.638h11.26a.319.319,0,0,1,0,.638Zm0-.293h0Z" transform="translate(-833.345 -1619.132)" fill="#e5cfa8"/>
    </g>
    <g id="Group_67" data-name="Group 67" transform="translate(240.27 59.312)">
      <path id="Path_67" data-name="Path 67" d="M844.2,1644.5h-9.857a.146.146,0,0,1,0-.292H844.2a.146.146,0,0,1,0,.292" transform="translate(-834.201 -1644.21)" fill="#e5cfa8"/>
    </g>
    <g id="Group_68" data-name="Group 68" transform="translate(240.097 59.14)">
      <path id="Path_68" data-name="Path 68" d="M843.515,1643.991h-9.857a.319.319,0,0,1,0-.637h9.857a.319.319,0,0,1,0,.637Zm0-.292h0Z" transform="translate(-833.345 -1643.354)" fill="#e5cfa8"/>
    </g>
    <g id="Group_69" data-name="Group 69" transform="translate(240.27 61.061)">
      <path id="Path_69" data-name="Path 69" d="M844.2,1653.175h-9.857a.147.147,0,0,1,0-.293H844.2a.147.147,0,0,1,0,.293" transform="translate(-834.201 -1652.882)" fill="#e5cfa8"/>
    </g>
    <g id="Group_70" data-name="Group 70" transform="translate(240.097 60.888)">
      <path id="Path_70" data-name="Path 70" d="M843.515,1652.664h-9.857a.319.319,0,0,1,0-.638h9.857a.319.319,0,0,1,0,.638Zm0-.293h0Z" transform="translate(-833.345 -1652.026)" fill="#e5cfa8"/>
    </g>
    <g id="Group_71" data-name="Group 71" transform="translate(240.27 62.821)">
      <path id="Path_71" data-name="Path 71" d="M844.2,1662.923a.14.14,0,0,1-.075-.022l-1.541-1h-8.241a.146.146,0,0,1,0-.293h8.282a.136.136,0,0,1,.074.022l1.575,1.021a.15.15,0,0,1,.044.2.139.139,0,0,1-.119.069" transform="translate(-834.201 -1661.609)" fill="#e5cfa8"/>
    </g>
    <g id="Group_72" data-name="Group 72" transform="translate(240.097 62.648)">
      <path id="Path_72" data-name="Path 72" d="M843.515,1662.412a.311.311,0,0,1-.166-.048l-1.5-.973h-8.19a.319.319,0,0,1,0-.638h8.282a.311.311,0,0,1,.168.049l1.575,1.022a.323.323,0,0,1,.1.435A.312.312,0,0,1,843.515,1662.412Zm.019-.339h0Z" transform="translate(-833.345 -1660.753)" fill="#e5cfa8"/>
    </g>
    <g id="Group_13" data-name="Group 13" transform="translate(102.76 51.391)">
      <path id="Path_13" data-name="Path 13" d="M154.059,1625.212a.143.143,0,0,1-.14-.146v-17.657l-1.681-2.25a.15.15,0,0,1,.025-.205.136.136,0,0,1,.2.026l1.71,2.29a.151.151,0,0,1,.03.09v17.707a.143.143,0,0,1-.141.146" transform="translate(-152.208 -1604.922)" fill="#e5cfa8"/>
    </g>
    <g id="Group_14" data-name="Group 14" transform="translate(102.587 51.219)">
      <path id="Path_14" data-name="Path 14" d="M153.378,1624.7a.316.316,0,0,1-.313-.318v-17.6l-1.646-2.2a.324.324,0,0,1,.055-.443.3.3,0,0,1,.229-.067.314.314,0,0,1,.213.124l1.71,2.29a.324.324,0,0,1,.064.193v17.707A.316.316,0,0,1,153.378,1624.7Z" transform="translate(-151.355 -1604.066)" fill="#e5cfa8"/>
    </g>
    <g id="Group_15" data-name="Group 15" transform="translate(106.181 50.92)">
      <path id="Path_15" data-name="Path 15" d="M169.314,1623.348a.143.143,0,0,1-.14-.146v-20.469a.14.14,0,1,1,.281,0V1623.2a.143.143,0,0,1-.14.146" transform="translate(-169.174 -1602.587)" fill="#e5cfa8"/>
    </g>
    <g id="Group_16" data-name="Group 16" transform="translate(106.009 50.747)">
      <path id="Path_16" data-name="Path 16" d="M168.631,1622.837a.316.316,0,0,1-.313-.318V1602.05a.313.313,0,1,1,.626,0v20.469A.316.316,0,0,1,168.631,1622.837Z" transform="translate(-168.318 -1601.731)" fill="#e5cfa8"/>
    </g>
    <g id="Group_17" data-name="Group 17" transform="translate(107.84 50.92)">
      <path id="Path_17" data-name="Path 17" d="M177.534,1623.348a.143.143,0,0,1-.14-.146v-20.469a.14.14,0,1,1,.281,0V1623.2a.143.143,0,0,1-.14.146" transform="translate(-177.394 -1602.587)" fill="#e5cfa8"/>
    </g>
    <g id="Group_18" data-name="Group 18" transform="translate(107.667 50.747)">
      <path id="Path_18" data-name="Path 18" d="M176.851,1622.837a.316.316,0,0,1-.313-.318V1602.05a.313.313,0,1,1,.626,0v20.469A.316.316,0,0,1,176.851,1622.837Z" transform="translate(-176.538 -1601.731)" fill="#e5cfa8"/>
    </g>
    <g id="Group_19" data-name="Group 19" transform="translate(107.839 59.4)">
      <path id="Path_19" data-name="Path 19" d="M187.082,1644.934h-9.548a.146.146,0,0,1,0-.292h9.548a.146.146,0,0,1,0,.292" transform="translate(-177.393 -1644.642)" fill="#e5cfa8"/>
    </g>
    <g id="Group_20" data-name="Group 20" transform="translate(107.667 59.227)">
      <path id="Path_20" data-name="Path 20" d="M186.4,1644.425h-9.548a.319.319,0,0,1,0-.638H186.4a.319.319,0,0,1,0,.638Zm0-.293h0Z" transform="translate(-176.538 -1643.787)" fill="#e5cfa8"/>
    </g>
    <g id="Group_21" data-name="Group 21" transform="translate(107.839 61.205)">
      <path id="Path_21" data-name="Path 21" d="M187.082,1653.887h-9.548a.146.146,0,0,1,0-.293h9.548a.146.146,0,0,1,0,.293" transform="translate(-177.393 -1653.594)" fill="#e5cfa8"/>
    </g>
    <g id="Group_22" data-name="Group 22" transform="translate(107.667 61.032)">
      <path id="Path_22" data-name="Path 22" d="M186.4,1653.377h-9.548a.319.319,0,0,1,0-.638H186.4a.319.319,0,0,1,0,.638Zm0-.293h0Z" transform="translate(-176.538 -1652.739)" fill="#e5cfa8"/>
    </g>
    <g id="Group_23" data-name="Group 23" transform="translate(107.839 62.909)">
      <path id="Path_23" data-name="Path 23" d="M187.082,1662.338h-9.548a.146.146,0,0,1,0-.292h9.548a.146.146,0,0,1,0,.292" transform="translate(-177.393 -1662.045)" fill="#e5cfa8"/>
    </g>
    <g id="Group_24" data-name="Group 24" transform="translate(107.667 62.736)">
      <path id="Path_24" data-name="Path 24" d="M186.4,1661.827h-9.548a.319.319,0,0,1,0-.638H186.4a.319.319,0,0,1,0,.638Zm0-.293h0Z" transform="translate(-176.538 -1661.189)" fill="#e5cfa8"/>
    </g>
    <g id="Group_25" data-name="Group 25" transform="translate(117.388 50.92)">
      <path id="Path_25" data-name="Path 25" d="M224.87,1623.348a.143.143,0,0,1-.14-.146v-20.469a.141.141,0,1,1,.281,0V1623.2a.143.143,0,0,1-.141.146" transform="translate(-224.73 -1602.587)" fill="#e5cfa8"/>
    </g>
    <g id="Group_26" data-name="Group 26" transform="translate(117.215 50.747)">
      <path id="Path_26" data-name="Path 26" d="M224.188,1622.837a.316.316,0,0,1-.313-.318V1602.05a.313.313,0,1,1,.626,0v20.469A.316.316,0,0,1,224.188,1622.837Z" transform="translate(-223.875 -1601.731)" fill="#e5cfa8"/>
    </g>
    <g id="Group_27" data-name="Group 27" transform="translate(119.121 50.92)">
      <path id="Path_27" data-name="Path 27" d="M233.466,1623.348a.143.143,0,0,1-.14-.146v-20.469a.141.141,0,1,1,.281,0V1623.2a.143.143,0,0,1-.14.146" transform="translate(-233.326 -1602.587)" fill="#e5cfa8"/>
    </g>
    <g id="Group_28" data-name="Group 28" transform="translate(118.949 50.747)">
      <path id="Path_28" data-name="Path 28" d="M232.783,1622.837a.316.316,0,0,1-.313-.318V1602.05a.313.313,0,1,1,.626,0v20.469A.316.316,0,0,1,232.783,1622.837Z" transform="translate(-232.47 -1601.731)" fill="#e5cfa8"/>
    </g>
    <g id="Group_29" data-name="Group 29" transform="translate(120.757 50.92)">
      <path id="Path_29" data-name="Path 29" d="M242.954,1623.087a.138.138,0,0,1-.112-.058l-1.378-1.9a.151.151,0,0,1-.028-.088v-18.307a.141.141,0,1,1,.281,0v18.257l1.349,1.862a.15.15,0,0,1-.028.2.137.137,0,0,1-.085.029" transform="translate(-241.436 -1602.587)" fill="#e5cfa8"/>
    </g>
    <g id="Group_30" data-name="Group 30" transform="translate(120.584 50.748)">
      <path id="Path_30" data-name="Path 30" d="M242.27,1622.577a.313.313,0,0,1-.252-.129l-1.378-1.9a.327.327,0,0,1-.061-.189v-18.307a.313.313,0,1,1,.626,0v18.2l1.317,1.816a.324.324,0,0,1-.061.442A.312.312,0,0,1,242.27,1622.577Zm.028-.332h0Z" transform="translate(-240.58 -1601.732)" fill="#e5cfa8"/>
    </g>
    <g id="Group_37" data-name="Group 37" transform="translate(223.058 64.37)">
      <path id="Path_37" data-name="Path 37" d="M753.747,1676.614a.138.138,0,0,1-.115-.062l-4.739-7.019a.15.15,0,0,1,.034-.2.137.137,0,0,1,.2.035l4.739,7.019a.152.152,0,0,1-.034.2.144.144,0,0,1-.081.026" transform="translate(-748.868 -1669.303)" fill="#e5cfa8"/>
    </g>
    <g id="Group_38" data-name="Group 38" transform="translate(222.886 64.197)">
      <path id="Path_38" data-name="Path 38" d="M753.066,1676.1a.31.31,0,0,1-.258-.139l-4.738-7.018a.325.325,0,0,1,.075-.439.307.307,0,0,1,.236-.055.311.311,0,0,1,.2.133l4.739,7.019a.323.323,0,0,1-.074.44A.318.318,0,0,1,753.066,1676.1Zm.028-.331h0Z" transform="translate(-748.015 -1668.447)" fill="#e5cfa8"/>
    </g>
    <g id="Group_39" data-name="Group 39" transform="translate(224.719 64.37)">
      <path id="Path_39" data-name="Path 39" d="M761.983,1676.614a.138.138,0,0,1-.115-.062l-4.739-7.019a.15.15,0,0,1,.034-.2.137.137,0,0,1,.2.035l4.739,7.019a.152.152,0,0,1-.034.2.141.141,0,0,1-.081.026" transform="translate(-757.104 -1669.303)" fill="#e5cfa8"/>
    </g>
    <g id="Group_40" data-name="Group 40" transform="translate(224.547 64.197)">
      <path id="Path_40" data-name="Path 40" d="M761.3,1676.1a.312.312,0,0,1-.258-.138l-4.738-7.019a.325.325,0,0,1,.075-.44.31.31,0,0,1,.441.077l4.739,7.02a.324.324,0,0,1-.074.44A.315.315,0,0,1,761.3,1676.1Zm.028-.331h0Z" transform="translate(-756.252 -1668.446)" fill="#e5cfa8"/>
    </g>
    <g id="Group_45" data-name="Group 45" transform="translate(216.552 50.92)">
      <path id="Path_45" data-name="Path 45" d="M716.7,1623.348a.143.143,0,0,1-.141-.146v-20.469a.14.14,0,1,1,.281,0V1623.2a.143.143,0,0,1-.14.146" transform="translate(-716.556 -1602.587)" fill="#e5cfa8"/>
    </g>
    <g id="Group_47" data-name="Group 47" transform="translate(218.255 50.92)">
      <path id="Path_47" data-name="Path 47" d="M726.57,1623.348a.138.138,0,0,1-.117-.065l-1.43-2.229a.15.15,0,0,1-.024-.081v-18.239a.14.14,0,1,1,.281,0v18.195l1.407,2.193a.149.149,0,0,1-.039.2.134.134,0,0,1-.078.025" transform="translate(-724.999 -1602.587)" fill="#e5cfa8"/>
    </g>
    <g id="Group_48" data-name="Group 48" transform="translate(218.082 50.747)">
      <path id="Path_48" data-name="Path 48" d="M725.886,1622.837a.31.31,0,0,1-.262-.145l-1.43-2.229a.319.319,0,0,1-.051-.174v-18.24a.313.313,0,1,1,.626,0v18.144l1.379,2.151a.323.323,0,0,1-.086.438A.3.3,0,0,1,725.886,1622.837Zm.029-.331h0Z" transform="translate(-724.143 -1601.731)" fill="#e5cfa8"/>
    </g>
    <g id="Group_73" data-name="Group 73" transform="translate(218.294 54.368)">
      <path id="Path_73" data-name="Path 73" d="M730.914,1626.549c-.215,0-.43-.006-.643-.012s-.407-.011-.606-.011h-4.317a.146.146,0,0,1,0-.292h4.317c.2,0,.406.005.613.011a5.331,5.331,0,0,0,2.39-.289,3.058,3.058,0,0,0,1.679-2.857,3.09,3.09,0,0,0-1-2.489,4.287,4.287,0,0,0-2.829-.627h-5.169a.146.146,0,0,1,0-.292h5.168a4.49,4.49,0,0,1,3,.688,3.7,3.7,0,0,1-.734,5.845,4.381,4.381,0,0,1-1.869.326" transform="translate(-725.208 -1619.689)" fill="#e5cfa8"/>
    </g>
    <g id="Group_74" data-name="Group 74" transform="translate(218.122 54.195)">
      <path id="Path_74" data-name="Path 74" d="M730.231,1626.038c-.209,0-.417-.006-.624-.012l-.025-.173,0,.173c-.2-.006-.4-.011-.594-.011h-4.317a.319.319,0,0,1,0-.637h4.317c.2,0,.409.006.618.012a5.211,5.211,0,0,0,2.313-.273,2.889,2.889,0,0,0,1.579-2.7,2.924,2.924,0,0,0-.937-2.354,4.168,4.168,0,0,0-2.72-.589h-5.17a.319.319,0,0,1,0-.637h5.168a4.614,4.614,0,0,1,3.109.726,3.869,3.869,0,0,1-.769,6.137A4.557,4.557,0,0,1,730.231,1626.038Z" transform="translate(-724.352 -1618.832)" fill="#e5cfa8"/>
    </g>
    <g id="Group_75" data-name="Group 75" transform="translate(218.413 52.65)">
      <path id="Path_75" data-name="Path 75" d="M730.989,1621.416c-.207,0-.413,0-.617-.005s-.407-.005-.608-.005h-3.825a.132.132,0,1,1,0-.264h3.825c.2,0,.407,0,.612.005a11.261,11.261,0,0,0,2.418-.139,4.3,4.3,0,0,0,2.6-1.432,4.616,4.616,0,0,0,1.241-3.305,5.717,5.717,0,0,0-.175-1.45c-.666-2.539-3.079-3.416-5.316-3.391-1.221.014-2.461.009-3.661,0-.61,0-.935,0-1.544,0a.132.132,0,1,1,0-.264c.61,0,.935,0,1.545,0,1.2,0,2.438.01,3.656,0h.1c2.328,0,4.795.94,5.491,3.591a6,6,0,0,1,.183,1.514,4.866,4.866,0,0,1-1.317,3.487,4.573,4.573,0,0,1-2.742,1.508,9.255,9.255,0,0,1-1.863.151" transform="translate(-725.8 -1611.165)" fill="#e5cfa8"/>
    </g>
    <g id="Group_76" data-name="Group 76" transform="translate(218.236 52.482)">
      <path id="Path_76" data-name="Path 76" d="M730.32,1620.916c-.208,0-.415,0-.62-.005h-.032c-.192,0-.384-.005-.574-.005h-3.825a.3.3,0,1,1,0-.6h3.825c.175,0,.351,0,.528,0h.086a11.063,11.063,0,0,0,2.382-.135,4.155,4.155,0,0,0,2.514-1.385,4.454,4.454,0,0,0,1.191-3.186,5.557,5.557,0,0,0-.169-1.408c-.807-3.074-4.151-3.276-5.151-3.265-1.223.014-2.463.009-3.663,0l-.4,0c-.385,0-.684,0-1.148,0a.3.3,0,1,1,0-.6c.442,0,.735,0,1.095,0l.557,0c1.163,0,2.367.008,3.547-.005h.1c2.93,0,5.043,1.39,5.654,3.717a6.163,6.163,0,0,1,.188,1.557,5.033,5.033,0,0,1-1.366,3.606,4.723,4.723,0,0,1-2.828,1.554A9.437,9.437,0,0,1,730.32,1620.916Z" transform="translate(-724.962 -1610.328)" fill="#e5cfa8"/>
    </g>
    <g id="Group_101" data-name="Group 101" transform="translate(129.054 50.774)">
      <path id="Path_101" data-name="Path 101" d="M282.757,1622.769a.131.131,0,0,1-.055-.012.149.149,0,0,1-.073-.192l8.547-20.615a.138.138,0,0,1,.184-.076.149.149,0,0,1,.073.192l-8.547,20.614a.14.14,0,0,1-.129.088" transform="translate(-282.616 -1601.863)" fill="#e5cfa8"/>
    </g>
    <g id="Group_102" data-name="Group 102" transform="translate(128.882 50.601)">
      <path id="Path_102" data-name="Path 102" d="M282.075,1622.259a.3.3,0,0,1-.129-.029.321.321,0,0,1-.159-.414l8.547-20.615a.31.31,0,0,1,.173-.172.3.3,0,0,1,.241.005.322.322,0,0,1,.162.415l-8.547,20.615A.311.311,0,0,1,282.075,1622.259Zm-.031-.326h0Z" transform="translate(-281.763 -1601.007)" fill="#e5cfa8"/>
    </g>
    <g id="Group_105" data-name="Group 105" transform="translate(126.483 50.773)">
      <path id="Path_105" data-name="Path 105" d="M270.008,1622.505a.137.137,0,0,1-.1-.046.15.15,0,0,1,.005-.207l1.869-1.844,7.655-18.462a.138.138,0,0,1,.184-.076.148.148,0,0,1,.073.192l-7.666,18.489a.149.149,0,0,1-.033.048l-1.89,1.865a.137.137,0,0,1-.1.04" transform="translate(-269.868 -1601.859)" fill="#e5cfa8"/>
    </g>
    <g id="Group_106" data-name="Group 106" transform="translate(126.311 50.601)">
      <path id="Path_106" data-name="Path 106" d="M269.328,1621.995a.311.311,0,0,1-.23-.1.325.325,0,0,1,.012-.445l1.844-1.819,7.642-18.43a.314.314,0,0,1,.174-.173.308.308,0,0,1,.241.006.322.322,0,0,1,.162.415l-7.666,18.49a.321.321,0,0,1-.07.1l-1.89,1.866A.311.311,0,0,1,269.328,1621.995Z" transform="translate(-269.015 -1601.004)" fill="#e5cfa8"/>
    </g>
    <g id="Group_1" data-name="Group 1" transform="translate(160.054 50.967)">
      <path id="Path_1" data-name="Path 1" d="M438.374,1623.271a.137.137,0,0,1-.11-.056l-1.872-2.46a.149.149,0,0,1-.03-.091v-5.6a.149.149,0,0,1,.023-.081l7.71-12.1a.137.137,0,0,1,.195-.041.149.149,0,0,1,.039.2l-7.687,12.063v5.505l1.842,2.421a.15.15,0,0,1-.023.205.137.137,0,0,1-.087.032" transform="translate(-436.361 -1602.818)" fill="#e5cfa8"/>
    </g>
    <g id="Group_2" data-name="Group 2" transform="translate(159.881 50.794)">
      <path id="Path_2" data-name="Path 2" d="M437.691,1622.761a.309.309,0,0,1-.247-.124l-1.872-2.46a.319.319,0,0,1-.066-.2v-5.6a.32.32,0,0,1,.05-.174l7.71-12.1a.312.312,0,0,1,.2-.139.306.306,0,0,1,.236.049.323.323,0,0,1,.086.437l-7.66,12.021v5.4l1.807,2.375a.324.324,0,0,1-.051.443A.312.312,0,0,1,437.691,1622.761Zm.027-.332h0Z" transform="translate(-435.506 -1601.963)" fill="#e5cfa8"/>
    </g>
    <g id="Group_3" data-name="Group 3" transform="translate(150.624 50.91)">
      <path id="Path_3" data-name="Path 3" d="M397.366,1623.077a.143.143,0,0,1-.14-.146v-8.278l-7.61-11.891a.15.15,0,0,1,.039-.2.136.136,0,0,1,.194.041l7.634,11.928a.147.147,0,0,1,.023.08v8.323a.143.143,0,0,1-.14.146" transform="translate(-389.592 -1602.534)" fill="#e5cfa8"/>
    </g>
    <g id="Group_4" data-name="Group 4" transform="translate(150.452 50.737)">
      <path id="Path_4" data-name="Path 4" d="M396.686,1622.566a.316.316,0,0,1-.313-.318v-8.228l-7.583-11.849a.324.324,0,0,1,.087-.437.3.3,0,0,1,.235-.05.311.311,0,0,1,.2.14l7.634,11.928a.319.319,0,0,1,.051.174v8.323A.316.316,0,0,1,396.686,1622.566Zm-7.662-20.557Z" transform="translate(-388.739 -1601.678)" fill="#e5cfa8"/>
    </g>
    <g id="Group_5" data-name="Group 5" transform="translate(158.281 51.027)">
      <path id="Path_5" data-name="Path 5" d="M427.738,1615.271l7.6-11.927a.15.15,0,0,0-.04-.2.136.136,0,0,0-.195.041l-7.534,11.827Z" transform="translate(-427.568 -1603.117)" fill="#e5cfa8"/>
    </g>
    <g id="Group_6" data-name="Group 6" transform="translate(158.108 50.854)">
      <path id="Path_6" data-name="Path 6" d="M427.056,1614.76a.172.172,0,0,1-.144-.079l-.17-.262a.172.172,0,0,1,0-.187l7.534-11.827a.311.311,0,0,1,.2-.139.3.3,0,0,1,.236.05.32.32,0,0,1,.086.436l-7.6,11.928a.172.172,0,0,1-.145.08Z" transform="translate(-426.713 -1602.261)" fill="#e5cfa8"/>
    </g>
    <g id="Group_7" data-name="Group 7" transform="translate(134.483 62.909)">
      <path id="Path_7" data-name="Path 7" d="M316,1662.338h-6.316a.146.146,0,0,1,0-.292H316a.146.146,0,0,1,0,.292" transform="translate(-309.542 -1662.045)" fill="#e5cfa8"/>
    </g>
    <g id="Group_8" data-name="Group 8" transform="translate(134.31 62.736)">
      <path id="Path_8" data-name="Path 8" d="M315.315,1661.827H309a.319.319,0,0,1,0-.638h6.316a.319.319,0,0,1,0,.638Zm0-.293h0Z" transform="translate(-308.686 -1661.189)" fill="#e5cfa8"/>
    </g>
    <g id="Group_9" data-name="Group 9" transform="translate(133.666 64.713)">
      <path id="Path_9" data-name="Path 9" d="M313.469,1671.288h-7.84a.146.146,0,0,1,0-.293h7.84a.146.146,0,0,1,0,.293" transform="translate(-305.489 -1670.996)" fill="#e5cfa8"/>
    </g>
    <g id="Group_10" data-name="Group 10" transform="translate(133.493 64.541)">
      <path id="Path_10" data-name="Path 10" d="M312.786,1670.778h-7.84a.319.319,0,0,1,0-.638h7.84a.319.319,0,0,1,0,.638Zm0-.293h0Z" transform="translate(-304.633 -1670.14)" fill="#e5cfa8"/>
    </g>
    <g id="Group_11" data-name="Group 11" transform="translate(132.965 66.418)">
      <path id="Path_11" data-name="Path 11" d="M311.442,1679.74h-9.288a.146.146,0,0,1,0-.292h9.288a.146.146,0,0,1,0,.292" transform="translate(-302.013 -1679.448)" fill="#e5cfa8"/>
    </g>
    <g id="Group_12" data-name="Group 12" transform="translate(132.792 66.245)">
      <path id="Path_12" data-name="Path 12" d="M310.759,1679.229h-9.288a.319.319,0,0,1,0-.637h9.288a.319.319,0,0,1,0,.637Zm0-.292h0Z" transform="translate(-301.158 -1678.592)" fill="#e5cfa8"/>
    </g>
    <g id="Group_31" data-name="Group 31" transform="translate(203.167 50.92)">
      <path id="Path_31" data-name="Path 31" d="M650.314,1623.348a.135.135,0,0,1-.065-.016.15.15,0,0,1-.059-.2l1.4-2.764v-17.637a.14.14,0,1,1,.281,0v17.673a.15.15,0,0,1-.016.068l-1.421,2.8a.14.14,0,0,1-.124.078" transform="translate(-650.173 -1602.587)" fill="#e5cfa8"/>
    </g>
    <g id="Group_32" data-name="Group 32" transform="translate(202.995 50.747)">
      <path id="Path_32" data-name="Path 32" d="M649.633,1622.837a.312.312,0,0,1-.149-.038.325.325,0,0,1-.129-.427l1.385-2.727v-17.6a.313.313,0,1,1,.626,0v17.673a.319.319,0,0,1-.036.148l-1.419,2.793A.311.311,0,0,1,649.633,1622.837Z" transform="translate(-649.32 -1601.731)" fill="#e5cfa8"/>
    </g>
    <g id="Group_33" data-name="Group 33" transform="translate(206.29 50.92)">
      <path id="Path_33" data-name="Path 33" d="M665.8,1623.348a.143.143,0,0,1-.141-.146v-20.469a.14.14,0,1,1,.281,0V1623.2a.143.143,0,0,1-.14.146" transform="translate(-665.663 -1602.587)" fill="#e5cfa8"/>
    </g>
    <g id="Group_34" data-name="Group 34" transform="translate(206.118 50.747)">
      <path id="Path_34" data-name="Path 34" d="M665.12,1622.837a.316.316,0,0,1-.313-.318V1602.05a.313.313,0,1,1,.626,0v20.469A.316.316,0,0,1,665.12,1622.837Z" transform="translate(-664.807 -1601.731)" fill="#e5cfa8"/>
    </g>
    <g id="Group_35" data-name="Group 35" transform="translate(207.955 50.92)">
      <path id="Path_35" data-name="Path 35" d="M674.06,1623.348a.143.143,0,0,1-.14-.146v-20.469a.14.14,0,1,1,.281,0V1623.2a.143.143,0,0,1-.14.146" transform="translate(-673.92 -1602.587)" fill="#e5cfa8"/>
    </g>
    <g id="Group_36" data-name="Group 36" transform="translate(207.783 50.747)">
      <path id="Path_36" data-name="Path 36" d="M673.377,1622.837a.316.316,0,0,1-.313-.318V1602.05a.313.313,0,1,1,.626,0v20.469A.316.316,0,0,1,673.377,1622.837Z" transform="translate(-673.064 -1601.731)" fill="#e5cfa8"/>
    </g>
    <g id="Group_43" data-name="Group 43" transform="translate(214.886 50.92)">
      <path id="Path_43" data-name="Path 43" d="M708.433,1623.348a.143.143,0,0,1-.14-.146v-20.469a.141.141,0,1,1,.281,0V1623.2a.143.143,0,0,1-.141.146" transform="translate(-708.293 -1602.587)" fill="#e5cfa8"/>
    </g>
    <g id="Group_44" data-name="Group 44" transform="translate(214.714 50.747)">
      <path id="Path_44" data-name="Path 44" d="M707.75,1622.837a.316.316,0,0,1-.313-.318V1602.05a.313.313,0,1,1,.626,0v20.469A.316.316,0,0,1,707.75,1622.837Z" transform="translate(-707.437 -1601.731)" fill="#e5cfa8"/>
    </g>
    <g id="Group_46" data-name="Group 46" transform="translate(216.38 50.747)">
      <path id="Path_46" data-name="Path 46" d="M716.013,1622.837a.316.316,0,0,1-.313-.318V1602.05a.313.313,0,1,1,.626,0v20.469A.316.316,0,0,1,716.013,1622.837Z" transform="translate(-715.7 -1601.731)" fill="#e5cfa8"/>
    </g>
    <g id="Group_79" data-name="Group 79" transform="translate(171.297 50.92)">
      <path id="Path_79" data-name="Path 79" d="M499.114,1623.5a.141.141,0,0,1-.133-.1l-6.852-20.614a.148.148,0,0,1,.087-.186.14.14,0,0,1,.178.09l6.852,20.615a.147.147,0,0,1-.087.185.127.127,0,0,1-.046.008" transform="translate(-492.121 -1602.588)" fill="#e5cfa8"/>
    </g>
    <g id="Group_80" data-name="Group 80" transform="translate(171.125 50.748)">
      <path id="Path_80" data-name="Path 80" d="M498.432,1622.984a.313.313,0,0,1-.3-.217l-6.852-20.614a.322.322,0,0,1,.193-.4.305.305,0,0,1,.238.013.318.318,0,0,1,.162.185l6.852,20.615a.321.321,0,0,1-.193.4A.3.3,0,0,1,498.432,1622.984Zm.031-.326h0Zm-6.914-20.6Z" transform="translate(-491.267 -1601.732)" fill="#e5cfa8"/>
    </g>
    <g id="Group_81" data-name="Group 81" transform="translate(173.033 50.921)">
      <path id="Path_81" data-name="Path 81" d="M507.134,1622.023l-6.394-19.239a.148.148,0,0,1,.087-.186.14.14,0,0,1,.179.09l6.4,19.256" transform="translate(-500.732 -1602.59)" fill="#e5cfa8"/>
    </g>
    <g id="Group_82" data-name="Group 82" transform="translate(172.861 50.748)">
      <path id="Path_82" data-name="Path 82" d="M506.451,1621.512a.173.173,0,0,1-.164-.118l-6.395-19.238a.321.321,0,0,1,.192-.4.307.307,0,0,1,.24.014.312.312,0,0,1,.161.185l6.4,19.255a.173.173,0,0,1-.109.218.174.174,0,0,1-.163-.029.172.172,0,0,1-.109.108A.18.18,0,0,1,506.451,1621.512Z" transform="translate(-499.877 -1601.735)" fill="#e5cfa8"/>
    </g>
    <g id="Group_83" data-name="Group 83" transform="translate(181.128 57.028)">
      <path id="Path_83" data-name="Path 83" d="M541.023,1647.706a.125.125,0,0,1-.046-.008.148.148,0,0,1-.087-.186L545.714,1633a.144.144,0,0,1,.265,0l4.83,14.517a.147.147,0,0,1-.087.186.139.139,0,0,1-.178-.09l-4.7-14.118-4.691,14.117a.141.141,0,0,1-.133.1" transform="translate(-540.882 -1632.907)" fill="#e5cfa8"/>
    </g>
    <g id="Group_84" data-name="Group 84" transform="translate(180.956 56.856)">
      <path id="Path_84" data-name="Path 84" d="M540.34,1647.2a.3.3,0,0,1-.107-.02.32.32,0,0,1-.189-.4l4.824-14.516a.309.309,0,0,1,.3-.207h0a.3.3,0,0,1,.3.206l4.83,14.516a.321.321,0,0,1-.193.4.3.3,0,0,1-.239-.014.314.314,0,0,1-.161-.184l-4.534-13.625-4.527,13.625A.314.314,0,0,1,540.34,1647.2Zm4.824-14.735-.062.185a.179.179,0,0,1,.123,0Z" transform="translate(-540.027 -1632.051)" fill="#e5cfa8"/>
    </g>
    <g id="Group_85" data-name="Group 85" transform="translate(180.062 51.849)">
      <path id="Path_85" data-name="Path 85" d="M535.736,1625.216a.126.126,0,0,1-.046-.008.147.147,0,0,1-.087-.186l5.89-17.74a.144.144,0,0,1,.265,0l5.9,17.74a.147.147,0,0,1-.087.186.14.14,0,0,1-.179-.09l-5.764-17.34-5.757,17.34a.142.142,0,0,1-.133.1" transform="translate(-535.596 -1607.194)" fill="#e5cfa8"/>
    </g>
    <g id="Group_86" data-name="Group 86" transform="translate(179.89 51.677)">
      <path id="Path_86" data-name="Path 86" d="M535.054,1624.705a.305.305,0,0,1-.106-.019.32.32,0,0,1-.19-.4l5.89-17.74a.308.308,0,0,1,.3-.207h0a.308.308,0,0,1,.3.207l5.9,17.74a.322.322,0,0,1-.193.4.309.309,0,0,1-.239-.013.314.314,0,0,1-.161-.185l-5.6-16.847-5.594,16.848A.315.315,0,0,1,535.054,1624.705Zm11.818-.325Zm-5.928-17.633-.062.186a.176.176,0,0,1,.123,0Zm.031-.094" transform="translate(-534.741 -1606.338)" fill="#e5cfa8"/>
    </g>
    <g id="Group_87" data-name="Group 87" transform="translate(174.721 50.967)">
      <path id="Path_87" data-name="Path 87" d="M514.141,1618.079h0a.141.141,0,0,1-.133-.1l-4.894-14.969a.148.148,0,0,1,.088-.186.139.139,0,0,1,.178.091l4.761,14.563,4.768-14.563a.14.14,0,0,1,.178-.091.148.148,0,0,1,.088.186l-4.9,14.969a.141.141,0,0,1-.133.1" transform="translate(-509.107 -1602.817)" fill="#e5cfa8"/>
    </g>
    <g id="Group_88" data-name="Group 88" transform="translate(174.549 50.794)">
      <path id="Path_88" data-name="Path 88" d="M513.458,1617.568a.314.314,0,0,1-.3-.218l-4.894-14.969a.321.321,0,0,1,.194-.4.3.3,0,0,1,.238.013.318.318,0,0,1,.162.187l4.6,14.061,4.6-14.061a.321.321,0,0,1,.163-.187.3.3,0,0,1,.238-.013.321.321,0,0,1,.193.4l-4.9,14.969A.314.314,0,0,1,513.458,1617.568Zm.031-.326h0Zm-.093-.286.063.192.063-.192a.176.176,0,0,1-.063.012h0A.172.172,0,0,1,513.4,1616.956Zm-4.862-14.669Z" transform="translate(-508.252 -1601.961)" fill="#e5cfa8"/>
    </g>
    <g id="Group_89" data-name="Group 89" transform="translate(193.754 50.92)">
      <path id="Path_89" data-name="Path 89" d="M603.639,1623.5a.124.124,0,0,1-.046-.008.147.147,0,0,1-.087-.185l6.852-20.615a.14.14,0,0,1,.179-.09.148.148,0,0,1,.087.186l-6.852,20.614a.141.141,0,0,1-.133.1" transform="translate(-603.499 -1602.588)" fill="#e5cfa8"/>
    </g>
    <g id="Group_90" data-name="Group 90" transform="translate(193.582 50.748)">
      <path id="Path_90" data-name="Path 90" d="M602.956,1622.984a.3.3,0,0,1-.107-.02.32.32,0,0,1-.189-.4l6.852-20.615a.315.315,0,0,1,.162-.185.3.3,0,0,1,.239-.013.321.321,0,0,1,.192.4l-6.852,20.615A.313.313,0,0,1,602.956,1622.984Z" transform="translate(-602.644 -1601.732)" fill="#e5cfa8"/>
    </g>
    <g id="Group_91" data-name="Group 91" transform="translate(192.364 50.95)">
      <path id="Path_91" data-name="Path 91" d="M596.742,1622.613a.141.141,0,0,1-.046-.008.148.148,0,0,1-.087-.186l6.506-19.586a.14.14,0,0,1,.179-.09.148.148,0,0,1,.087.186l-6.506,19.586a.141.141,0,0,1-.133.1" transform="translate(-596.602 -1602.735)" fill="#e5cfa8"/>
    </g>
    <g id="Group_92" data-name="Group 92" transform="translate(192.191 50.778)">
      <path id="Path_92" data-name="Path 92" d="M596.06,1622.1a.308.308,0,0,1-.1-.018.322.322,0,0,1-.193-.4l6.506-19.586a.32.32,0,0,1,.163-.185.306.306,0,0,1,.239-.013.321.321,0,0,1,.192.4l-6.507,19.587A.312.312,0,0,1,596.06,1622.1Zm-.032-.325h0Z" transform="translate(-595.748 -1601.88)" fill="#e5cfa8"/>
    </g>
    <g id="Group_93" data-name="Group 93" transform="translate(188.501 50.773)">
      <path id="Path_93" data-name="Path 93" d="M581.372,1617.314a.141.141,0,0,1-.133-.1l-3.788-11.567a.158.158,0,0,1,0-.079l.774-3.595a.141.141,0,0,1,.168-.111.147.147,0,0,1,.106.175l-.765,3.555,3.643,11.122,4.76-14.563a.139.139,0,0,1,.179-.091.147.147,0,0,1,.087.186l-4.893,14.969a.141.141,0,0,1-.133.1" transform="translate(-577.444 -1601.859)" fill="#e5cfa8"/>
    </g>
    <g id="Group_94" data-name="Group 94" transform="translate(188.328 50.601)">
      <path id="Path_94" data-name="Path 94" d="M580.69,1616.8a.315.315,0,0,1-.3-.217l-3.788-11.569a.333.333,0,0,1-.009-.167l.774-3.6a.317.317,0,0,1,.141-.2.306.306,0,0,1,.235-.04.321.321,0,0,1,.236.378l-.756,3.51,3.464,10.577,4.6-14.061a.315.315,0,0,1,.161-.187.308.308,0,0,1,.239-.014.321.321,0,0,1,.194.4l-4.893,14.969A.313.313,0,0,1,580.69,1616.8Zm.03-.325h0Zm-.094-.287.063.192.063-.192A.174.174,0,0,1,580.626,1616.191Z" transform="translate(-576.589 -1601.003)" fill="#e5cfa8"/>
    </g>
    <g id="Group_95" data-name="Group 95" transform="translate(148.749 50.967)">
      <path id="Path_95" data-name="Path 95" d="M388.144,1623.532a.143.143,0,0,1-.14-.146v-8.278l-7.687-12.063a.149.149,0,0,1,.039-.2.137.137,0,0,1,.195.04l7.711,12.1a.152.152,0,0,1,.023.081v8.323a.143.143,0,0,1-.141.146" transform="translate(-380.293 -1602.818)" fill="#e5cfa8"/>
    </g>
    <g id="Group_96" data-name="Group 96" transform="translate(148.577 50.794)">
      <path id="Path_96" data-name="Path 96" d="M387.462,1623.022a.316.316,0,0,1-.313-.318v-8.228l-7.66-12.021a.323.323,0,0,1,.088-.437.3.3,0,0,1,.234-.049.316.316,0,0,1,.2.139l7.711,12.1a.325.325,0,0,1,.051.173v8.323A.316.316,0,0,1,387.462,1623.022Zm-7.739-20.729Z" transform="translate(-379.439 -1601.962)" fill="#e5cfa8"/>
    </g>
    <g id="Group_97" data-name="Group 97" transform="translate(130.854 55.146)">
      <path id="Path_97" data-name="Path 97" d="M291.689,1640.111a.133.133,0,0,1-.056-.012.148.148,0,0,1-.073-.192l6.732-16.242a.138.138,0,0,1,.257,0l6.728,16.242a.149.149,0,0,1-.073.192.139.139,0,0,1-.184-.076l-6.6-15.931-6.6,15.931a.139.139,0,0,1-.128.088" transform="translate(-291.548 -1623.577)" fill="#e5cfa8"/>
    </g>
    <g id="Group_98" data-name="Group 98" transform="translate(130.682 54.974)">
      <path id="Path_98" data-name="Path 98" d="M304.467,1639.6a.309.309,0,0,1-.114-.022.317.317,0,0,1-.175-.174l-6.439-15.545-6.444,15.546a.318.318,0,0,1-.416.167.321.321,0,0,1-.16-.414l6.732-16.243a.311.311,0,0,1,.576,0l6.728,16.242a.323.323,0,0,1-.162.416A.3.3,0,0,1,304.467,1639.6Zm-13.491-.326h0Zm13.521,0Zm-6.758-16.037h0a.185.185,0,0,1,.051.007l-.051-.122-.05.122A.182.182,0,0,1,297.739,1623.238Z" transform="translate(-290.694 -1622.722)" fill="#e5cfa8"/>
    </g>
    <g id="Group_99" data-name="Group 99" transform="translate(137.632 50.774)">
      <path id="Path_99" data-name="Path 99" d="M333.844,1622.768a.14.14,0,0,1-.129-.088l-8.542-20.615a.149.149,0,0,1,.073-.192.139.139,0,0,1,.185.076l8.541,20.615a.148.148,0,0,1-.073.192.135.135,0,0,1-.056.012" transform="translate(-325.162 -1601.86)" fill="#e5cfa8"/>
    </g>
    <g id="Group_100" data-name="Group 100" transform="translate(137.46 50.601)">
      <path id="Path_100" data-name="Path 100" d="M333.162,1622.257a.311.311,0,0,1-.288-.2l-8.542-20.614a.323.323,0,0,1,.162-.415.308.308,0,0,1,.241-.005.313.313,0,0,1,.174.173l8.541,20.615a.322.322,0,0,1-.162.415A.3.3,0,0,1,333.162,1622.257Zm.031-.327h0Z" transform="translate(-324.308 -1601.005)" fill="#e5cfa8"/>
    </g>
    <g id="Group_103" data-name="Group 103" transform="translate(140.285 50.768)">
      <path id="Path_103" data-name="Path 103" d="M345.922,1622.747a.14.14,0,0,1-.129-.088l-7.428-17.926a.155.155,0,0,1-.012-.056l-.04-2.694a.144.144,0,0,1,.138-.148h0a.143.143,0,0,1,.141.144l.039,2.665,7.417,17.9a.149.149,0,0,1-.073.192.13.13,0,0,1-.055.012" transform="translate(-338.314 -1601.835)" fill="#e5cfa8"/>
    </g>
    <g id="Group_104" data-name="Group 104" transform="translate(140.112 50.596)">
      <path id="Path_104" data-name="Path 104" d="M345.24,1622.237a.312.312,0,0,1-.288-.195l-7.428-17.926a.328.328,0,0,1-.025-.116l-.04-2.7a.313.313,0,1,1,.626-.01l.039,2.632,7.4,17.869a.323.323,0,0,1-.162.415A.3.3,0,0,1,345.24,1622.237Zm.03-.327h0Z" transform="translate(-337.46 -1600.98)" fill="#e5cfa8"/>
    </g>
    <g id="Group_107" data-name="Group 107" transform="translate(152.602 50.967)">
      <path id="Path_107" data-name="Path 107" d="M405.239,1612.229h0a.139.139,0,0,1-.117-.067l-5.692-9.119a.15.15,0,0,1,.041-.2.137.137,0,0,1,.194.043l5.576,8.932,5.686-8.933a.137.137,0,0,1,.194-.041.15.15,0,0,1,.039.2l-5.8,9.119a.138.138,0,0,1-.117.065" transform="translate(-399.406 -1602.818)" fill="#e5cfa8"/>
    </g>
    <g id="Group_108" data-name="Group 108" transform="translate(152.429 50.794)">
      <path id="Path_108" data-name="Path 108" d="M404.553,1611.719h0a.311.311,0,0,1-.263-.148l-5.692-9.118a.32.32,0,0,1,.091-.437.306.306,0,0,1,.236-.047.316.316,0,0,1,.2.141l5.431,8.7,5.539-8.7a.31.31,0,0,1,.2-.139.306.306,0,0,1,.237.049.324.324,0,0,1,.086.437l-5.8,9.119A.31.31,0,0,1,404.553,1611.719Zm.028-.331h0Zm-.052-.083.024.038.024-.038a.118.118,0,0,1-.025,0Zm-5.7-9.011Z" transform="translate(-398.547 -1601.963)" fill="#e5cfa8"/>
    </g>
    <g id="Group_109" data-name="Group 109" transform="translate(178.614 67.814)">
      <path id="Path_109" data-name="Path 109" d="M529.576,1689.64a.143.143,0,0,1-.136-.1l-1.036-3.07.271-.092.9,2.666.6-1.789.272.092-.737,2.193a.143.143,0,0,1-.136.1" transform="translate(-528.405 -1686.38)" fill="#e5cfa8"/>
    </g>
    <g id="Group_110" data-name="Group 110" transform="translate(178.441 67.641)">
      <path id="Path_110" data-name="Path 110" d="M528.893,1689.129a.314.314,0,0,1-.3-.217l-1.035-3.068a.173.173,0,0,1,.108-.219l.272-.092a.17.17,0,0,1,.132.009.174.174,0,0,1,.087.1l.736,2.18.438-1.3a.172.172,0,0,1,.087-.1.174.174,0,0,1,.132-.009l.272.092a.172.172,0,0,1,.108.218l-.737,2.193A.314.314,0,0,1,528.893,1689.129Zm-.028-.325h0Zm.055,0h0Zm-.1-.282.068.2.067-.2a.17.17,0,0,1-.067.014h0A.176.176,0,0,1,528.826,1688.521Z" transform="translate(-527.549 -1685.524)" fill="#e5cfa8"/>
    </g>
    <g id="Group_111" data-name="Group 111" transform="translate(191.234 67.814)">
      <path id="Path_111" data-name="Path 111" d="M592.167,1689.64a.143.143,0,0,1-.136-.1l-1.037-3.07.272-.092.9,2.666.6-1.789.272.092-.737,2.193a.142.142,0,0,1-.136.1" transform="translate(-590.994 -1686.38)" fill="#e5cfa8"/>
    </g>
    <g id="Group_112" data-name="Group 112" transform="translate(191.062 67.642)">
      <path id="Path_112" data-name="Path 112" d="M591.483,1689.129a.315.315,0,0,1-.3-.217l-1.036-3.068a.172.172,0,0,1,.108-.219l.272-.092a.171.171,0,0,1,.132.009.173.173,0,0,1,.087.1l.737,2.181.438-1.3a.172.172,0,0,1,.219-.108l.272.092a.172.172,0,0,1,.108.218l-.737,2.193A.313.313,0,0,1,591.483,1689.129Zm-.028-.324h0Zm.056,0h0Zm-.1-.282.068.2.067-.2a.177.177,0,0,1-.067.014h0A.175.175,0,0,1,591.415,1688.521Z" transform="translate(-590.138 -1685.525)" fill="#e5cfa8"/>
    </g>
    <g id="Group_41" data-name="Group 41" transform="translate(226.254 64.107)">
      <path id="Path_41" data-name="Path 41" d="M769.765,1675.575a.139.139,0,0,1-.115-.062l-4.913-7.281a.151.151,0,0,1,.035-.2.136.136,0,0,1,.2.035l4.912,7.282a.15.15,0,0,1-.034.2.138.138,0,0,1-.08.026" transform="translate(-764.713 -1668.001)" fill="#e5cfa8"/>
    </g>
    <g id="Group_42" data-name="Group 42" transform="translate(226.081 63.935)">
      <path id="Path_42" data-name="Path 42" d="M769.081,1675.065a.311.311,0,0,1-.258-.138l-4.912-7.281a.321.321,0,0,1,.076-.44.3.3,0,0,1,.234-.056.314.314,0,0,1,.206.134l4.912,7.281a.324.324,0,0,1-.075.439A.312.312,0,0,1,769.081,1675.065Zm.028-.331h0Zm-4.968-7.257Z" transform="translate(-763.855 -1667.146)" fill="#e5cfa8"/>
    </g>
    <g id="Group_49" data-name="Group 49" transform="translate(235.144 50.92)">
      <path id="Path_49" data-name="Path 49" d="M808.927,1623.039a.135.135,0,0,1-.1-.045.15.15,0,0,1,0-.206l1.63-1.638v-18.415a.141.141,0,1,1,.281,0v18.477a.149.149,0,0,1-.043.105L809.024,1623a.138.138,0,0,1-.1.041" transform="translate(-808.786 -1602.588)" fill="#e5cfa8"/>
    </g>
    <g id="Group_50" data-name="Group 50" transform="translate(234.971 50.748)">
      <path id="Path_50" data-name="Path 50" d="M808.245,1622.528a.308.308,0,0,1-.229-.1.324.324,0,0,1,.008-.443l1.58-1.588v-18.344a.313.313,0,1,1,.626,0v18.477a.323.323,0,0,1-.093.227l-1.672,1.681A.311.311,0,0,1,808.245,1622.528Zm-.025-.335h0Z" transform="translate(-807.933 -1601.732)" fill="#e5cfa8"/>
    </g>
    <g id="Group_51" data-name="Group 51" transform="translate(238.436 50.92)">
      <path id="Path_51" data-name="Path 51" d="M825.25,1623.348a.143.143,0,0,1-.14-.146v-20.469a.14.14,0,1,1,.281,0V1623.2a.143.143,0,0,1-.14.146" transform="translate(-825.11 -1602.587)" fill="#e5cfa8"/>
    </g>
    <g id="Group_52" data-name="Group 52" transform="translate(238.263 50.747)">
      <path id="Path_52" data-name="Path 52" d="M824.567,1622.837a.316.316,0,0,1-.313-.318V1602.05a.313.313,0,1,1,.626,0v20.469A.316.316,0,0,1,824.567,1622.837Z" transform="translate(-824.254 -1601.731)" fill="#e5cfa8"/>
    </g>
    <g id="Group_53" data-name="Group 53" transform="translate(240.185 50.92)">
      <path id="Path_53" data-name="Path 53" d="M833.923,1623.348a.143.143,0,0,1-.141-.146v-20.469a.141.141,0,1,1,.281,0V1623.2a.143.143,0,0,1-.14.146" transform="translate(-833.782 -1602.587)" fill="#e5cfa8"/>
    </g>
    <g id="Group_54" data-name="Group 54" transform="translate(240.013 50.747)">
      <path id="Path_54" data-name="Path 54" d="M833.239,1622.837a.316.316,0,0,1-.313-.318V1602.05a.313.313,0,1,1,.626,0v20.469A.316.316,0,0,1,833.239,1622.837Z" transform="translate(-832.926 -1601.731)" fill="#e5cfa8"/>
    </g>
    <g id="Group_77" data-name="Group 77" transform="translate(218.327 50.173)">
      <path id="Path_77" data-name="Path 77" d="M730.55,1613.318h-4.992a.146.146,0,0,1,0-.293h4.985a9.56,9.56,0,0,0,4.251-.641c2.052-.969,3.229-3.141,3.229-5.959a7.857,7.857,0,0,0-.8-3.705c-1.032-1.941-2.973-2.849-6.111-2.856-.994,0-2.984,0-2.984,0a.144.144,0,0,1-.051-.01l-1.72-.688a.149.149,0,0,1-.081-.189.139.139,0,0,1,.181-.084l1.7.678c.237,0,2.031,0,2.958,0,2.045.005,4.93.323,6.357,3.007a8.154,8.154,0,0,1,.831,3.847c0,2.938-1.237,5.207-3.394,6.225a9.748,9.748,0,0,1-4.359.667" transform="translate(-725.417 -1598.882)" fill="#e5cfa8"/>
    </g>
    <g id="Group_78" data-name="Group 78" transform="translate(218.155 50)">
      <path id="Path_78" data-name="Path 78" d="M729.867,1612.807h-4.992a.319.319,0,0,1,0-.638h4.975a9.451,9.451,0,0,0,4.187-.624c1.989-.939,3.13-3.054,3.13-5.8a7.693,7.693,0,0,0-.775-3.624c-1-1.878-2.892-2.757-5.959-2.764-.979,0-2.924,0-2.981,0a.225.225,0,0,1-.114-.021l-1.723-.689a.323.323,0,0,1-.179-.409.314.314,0,0,1,.167-.18.306.306,0,0,1,.24-.005l1.665.666h.141c.53,0,1.982,0,2.784,0,2.09.005,5.038.332,6.509,3.1a8.325,8.325,0,0,1,.851,3.928c0,3.008-1.273,5.334-3.493,6.382A9.867,9.867,0,0,1,729.867,1612.807Z" transform="translate(-724.562 -1598.025)" fill="#e5cfa8"/>
    </g>
  </g>
</svg>
