<?xml version="1.0" encoding="UTF-8"?><svg id="Layer_2" xmlns="http://www.w3.org/2000/svg" viewBox="0 0 92.81 49.3"><defs><style>.cls-1{fill:#9ea1a2;}</style></defs><g id="Layer_1-2"><path class="cls-1" d="M92.68,38.8C88.73,16.32,69.27,0,46.41,0S4.09,16.32,.14,38.8c-.46,2.63,.25,5.3,1.96,7.34,1.69,2.01,4.16,3.16,6.78,3.16H83.93c2.62,0,5.1-1.15,6.78-3.16,1.71-2.03,2.42-4.71,1.96-7.34Zm-5.51,4.36c-.8,.96-1.98,1.51-3.23,1.51H8.88c-1.25,0-2.43-.55-3.23-1.51-.82-.98-1.17-2.27-.94-3.55C8.26,19.34,25.8,4.64,46.41,4.64s38.14,14.7,41.7,34.96c.22,1.28-.12,2.57-.94,3.55Z"/></g></svg>